<?xml version="1.0" encoding="utf-8"?>
<!DOCTYPE svg PUBLIC "-//W3C//DTD SVG 1.1//EN" "http://www.w3.org/Graphics/SVG/1.1/DTD/svg11.dtd">
<svg version="1.1"
	 xmlns="http://www.w3.org/2000/svg" x="0px" y="0px" width="59px" height="17px" viewBox="0 21.91 59 17">
<g>
	<path fill="#231F20" d="M21.026,36.414c-0.912,0.48-2.112,1.824-4.081,1.824c-0.288,0-0.384,0.144-0.72,0.144l-0.24,0.24
		c-1.968,0.336-2.88,0.72-5.424,0.72c-1.104,0-4.849-0.768-4.849-2.833c0-1.296,1.296-3.6,1.776-4.896l-0.192-0.192
		c-0.384,0.192-1.104,0.336-1.392,0.336c-0.336,0-0.192-0.096-0.48-0.096c-0.336,0-1.776,0.48-2.064,0.48
		c-0.576,0-1.536-0.144-2.352-0.144c-0.48,0-0.96-0.72-0.96-0.96c0-1.248,7.681-2.256,8.017-2.256c0.288,0,0.048,0.096,0.336,0.096
		c0.864,0,1.728-4.657,2.832-4.657c0.672,0,1.296,0.768,1.296,1.2c0,0.288-0.72,1.968-1.2,3.024c0.336,0.24,1.104-0.384,1.536,0.336
		l0.24-0.096c-0.096-0.048,0.288-0.24,0.528-0.384c-0.144,0.144-0.192,0.192-0.048,0.336c0.144-0.192,1.056-0.336,1.104-0.336
		c0.336,0,0.336,0.24,0.432,0.336c0.384-0.192,1.92-0.336,3.024-0.336c0.24,0,0.432,0.336,0.672,0.576l0.288-0.096
		c0,0.144,0.144,0.432,0.048,0.576c-0.096,0.144-0.24,0.384-0.144,0.576c-0.24,0-0.576,0.048-0.816,0.048
		c-0.48,0-2.496,0.576-3.696,0.576c-0.912-0.048-2.976,0.24-3.264,0.24c-1.296,0-3.024,4.513-3.024,5.088v1.056
		c0.816,0.144,3.121,0,3.457,0c0.288,0,4.8-1.104,5.088-1.104s0.192,0.144,0.288,0.24c0.24-0.096,0.624-0.336,1.008-0.48
		c0,0.144-0.048,0.24,0.048,0.384c0.144-0.24,0.432-0.384,0.864-0.624c0.24,0.288,0.48,0.384,0.72,0.48
		c0.048-0.048,0.24-0.384-0.192-0.432c0.144,0,0.432-0.144,0.576-0.048c0.24,0,0.24,0.48,0.528,0.48s0.336-0.096,0.432-0.096V36.414
		z M18.193,28.637l-0.048-0.144l-0.288,0.144v0.192L18.193,28.637z M20.018,36.125l-0.144,0.336l-0.192-0.096l0.192-0.288
		L20.018,36.125z M20.93,36.078l-0.432-0.144v0.192l0.384,0.144L20.93,36.078z"/>
	<path fill="#231F20" d="M31.583,34.71c-1.2,0-3-0.48-4.2-0.72c-1.32,1.74-1.98,5.4-2.7,5.4c-0.78,0-1.14-0.54-1.68-0.9
		c-0.12,0.12-0.18,0.3-0.3,0.42c0-0.12,0.06-0.36,0.24-0.54c-0.18-0.12-0.54-0.12-0.54,0c0-0.12,0-0.42-0.12-0.42
		c0.12,0,0.18,0,0.36-0.24c-0.18-0.24-0.42,0-0.6,0c0.72-2.76,1.62-5.64,2.82-7.74c0-0.12-0.12-0.24-0.3-0.24
		c0.66-1.8,1.32-3.66,1.74-5.4c0.84-0.72,3.84-2.22,4.86-2.22c3.12,0,8.7,2.22,8.7,6.06C39.863,30.81,34.583,34.71,31.583,34.71z
		 M33.684,25.11c-0.6,0-4.02,0.72-4.62,0.96c0.06,3.18-1.02,3.24-1.02,5.16v0.48c0.18,0,0.3,0.18,0.66,0.18
		c1.32,0,7.439-2.7,7.439-5.28C36.143,25.59,34.463,25.11,33.684,25.11z"/>
	<path fill="#231F20" d="M55.223,38.01c-0.36,0-0.9-0.42-1.68-0.78c0-0.12,0.18-0.36,0.3-0.479c0-0.06-0.18-0.36-0.66-0.48
		c-0.12,0.12,0.24,0.3,0.36,0.3c-0.12,0.18-0.18,0.42-0.18,0.54c-0.12-0.42-0.72-0.78-1.14-1.08v-1.08c0-0.48,0.78-2.52,0.78-3.36
		c-0.78,0.3-2.1,0.9-2.52,0.9c-1.44,0-4.2-1.86-5.4-2.7c-2.16,2.22-2.46,9-4.56,9c-0.36,0,0-0.48-0.36-0.48
		c-0.42,0,0,0.18-0.42,0.18c-0.66,0-1.5-0.9-1.5-1.2c0-0.3,2.7-7.08,3.54-9c0.12,0.12,0.36,0.18,0.54,0.06
		c-0.18-0.18-0.24-0.24-0.24-0.36l0.78,0.72l0.18-0.18c-0.24-0.12-0.48-0.6-0.66-0.9c0.54-1.62,1.68-4.02,1.8-4.02
		c1.14,0,2.46,1.14,3.18,1.86c0,1.5,0.12,2.64,0.9,4.02c2.4-0.18,4.44-3.48,5.76-4.2c0.18-0.18-0.18,0-0.18-0.42
		c0-0.66,1.56-1.38,1.74-1.38c1.38,0,3.24,2.16,3.24,3.06C58.822,27.63,57.143,38.01,55.223,38.01z M42.863,28.89
		c-0.42,0-0.54,0.06-0.72,0.24h0.78c0.36,0.06,0.36-0.3,0.36-0.3C43.223,28.65,43.223,28.89,42.863,28.89z M42.623,27.39
		c0,0.12,0.36,0.42,0.54,0.6c0-0.18,0.3-0.42,0.42-0.24C43.463,27.57,42.863,27.51,42.623,27.39z"/>
</g>
</svg>
